<svg width="40" height="57" viewBox="0 0 40 57" fill="none" xmlns="http://www.w3.org/2000/svg">
<path d="M38.0886 7.35559H30.8631V6.36858C30.8631 5.35393 30.0405 4.53122 29.0258 4.53122H26.0616C25.2713 1.91252 22.8362 0 19.963 0C17.0898 0 14.6547 1.91252 13.8644 4.53144H10.9002C9.88559 4.53144 9.06287 5.35405 9.06287 6.3688V7.35581H1.83736C0.822717 7.35581 0 8.17842 0 9.19317V54.5072C0 55.5219 0.822607 56.3446 1.83736 56.3446H38.0887C39.1034 56.3446 39.9261 55.522 39.9261 54.5072V9.19295C39.926 8.17831 39.1035 7.35559 38.0886 7.35559ZM12.7376 8.20604H15.4316C16.4462 8.20604 17.2689 7.38344 17.2689 6.36869C17.2689 4.88315 18.4775 3.67461 19.963 3.67461C21.4485 3.67461 22.6571 4.88315 22.6571 6.36869C22.6571 7.38333 23.4797 8.20604 24.4944 8.20604H27.1884C27.1884 8.60992 27.1884 10.8339 27.1884 11.0862H12.7376C12.7376 10.8539 12.7376 8.6086 12.7376 8.20604ZM27.2425 45.3137H12.6836C11.6689 45.3137 10.8462 44.4911 10.8462 43.4764C10.8462 42.4616 11.6688 41.639 12.6836 41.639H27.2424C28.2571 41.639 29.0798 42.4616 29.0798 43.4764C29.0798 44.4911 28.2572 45.3137 27.2425 45.3137ZM27.2425 35.5526H12.6836C11.6689 35.5526 10.8462 34.73 10.8462 33.7152C10.8462 32.7006 11.6688 31.8779 12.6836 31.8779H27.2424C28.2571 31.8779 29.0798 32.7005 29.0798 33.7152C29.0798 34.73 28.2572 35.5526 27.2425 35.5526ZM27.2425 25.7916H12.6836C11.6689 25.7916 10.8462 24.969 10.8462 23.9542C10.8462 22.9396 11.6688 22.1169 12.6836 22.1169H27.2424C28.2571 22.1169 29.0798 22.9395 29.0798 23.9542C29.0798 24.969 28.2572 25.7916 27.2425 25.7916Z" fill="white"/>
</svg>
