<svg width="35" height="35" viewBox="0 0 35 35" fill="none" xmlns="http://www.w3.org/2000/svg">
<path d="M31.8479 2.97479H27.5011V1.23505C27.5011 0.552959 26.9482 0 26.2661 0C25.584 0 25.031 0.552959 25.031 1.23505V2.97479H9.96915V1.23505C9.96915 0.552959 9.41612 0 8.7341 0C8.05208 0 7.49905 0.552959 7.49905 1.23505V2.97479H3.15228C2.4702 2.97479 1.91724 3.52775 1.91724 4.20984V9.44829H33.0829V4.20984C33.0829 3.52775 32.5299 2.97479 31.8479 2.97479Z" fill="white"/>
<path d="M1.91724 11.9183V33.765C1.91724 34.4471 2.4702 35 3.15228 35H31.8478C32.5299 35 33.0829 34.4471 33.0829 33.765V11.9183H1.91724ZM19.62 29.9519C19.62 30.6042 18.825 30.9304 18.0299 30.9304C17.2349 30.9304 16.44 30.6042 16.44 29.9519V19.5764L15.8488 19.9433C14.6464 20.7448 13.6676 18.5206 14.9316 17.7622L17.6223 16.1315C18.2294 15.7519 19.62 16.1548 19.62 16.9876V29.9519Z" fill="white"/>
</svg>
