<svg width="51" height="49" viewBox="0 0 51 49" fill="none" xmlns="http://www.w3.org/2000/svg">
<path d="M0.878505 38.3788C0.392525 38.3788 0 39.2903 0 40.4125V46.9559C0 48.0802 0.392525 48.9917 0.878505 48.9917H10.2118V38.3788H0.878505ZM24.191 49H13.6158V38.3788H24.191V49ZM37.975 49H27.3997V38.3788H37.975V49ZM24.0809 33.8963H13.5036V23.275H24.0809V33.8963ZM37.8649 33.8963H27.2876V23.275H37.8649V33.8963Z" fill="white"/>
<path d="M49.3801 37.975H40.4248V49H49.3801C49.8467 49 50.2248 48.0538 50.2248 46.8868V40.0882C50.2248 38.9212 49.8467 37.975 49.3801 37.975Z" fill="white"/>
<path d="M49.3801 23.275H40.4248V34.3H49.3801C49.8467 34.3 50.2248 33.3551 50.2248 32.1869V25.3903C50.2248 24.2221 49.8467 23.275 49.3801 23.275Z" fill="white"/>
<path d="M0.843077 23.275C0.376695 23.275 0 24.2221 0 25.3903V32.1869C0 33.3551 0.376695 34.3 0.843077 34.3H9.8V23.275H0.843077Z" fill="white"/>
<path d="M48.2498 0H1.97724C1.45284 0 0.949923 0.20667 0.57912 0.574542C0.208316 0.942415 0 1.44136 0 1.96161V17.6384C0 18.1586 0.208316 18.6576 0.57912 19.0255C0.949923 19.3933 1.45284 19.6 1.97724 19.6H48.2498C48.7738 19.5995 49.2762 19.3926 49.6466 19.0247C50.017 18.6569 50.225 18.1583 50.225 17.6384V1.96161C50.225 1.44171 50.017 0.943069 49.6466 0.575254C49.2762 0.207439 48.7738 0.000532687 48.2498 0V0Z" fill="white"/>
</svg>
