<svg width="121" height="47" viewBox="0 0 121 47" fill="none" xmlns="http://www.w3.org/2000/svg">
<path d="M40.3675 21.0682C40.2151 20.9149 40.1389 20.7334 40.1389 20.5237V1.98061C40.1389 1.7709 40.2151 1.58942 40.3675 1.43617C40.5199 1.28292 40.7003 1.2063 40.9088 1.2063H55.2965C55.5051 1.2063 55.6855 1.28292 55.8379 1.43617C55.9903 1.58942 56.0664 1.7709 56.0664 1.98061V6.34417C56.0664 6.55388 55.9903 6.73536 55.8379 6.88861C55.6855 7.04186 55.5051 7.11848 55.2965 7.11848H47.1323V9.2438H54.7231C54.9316 9.2438 55.1121 9.32042 55.2645 9.47367C55.4168 9.62692 55.493 9.8084 55.493 10.0181V14.3534C55.493 14.5632 55.4168 14.7446 55.2645 14.8979C55.1121 15.0511 54.9316 15.1278 54.7231 15.1278H47.1323V20.5237C47.1323 20.7334 47.0561 20.9149 46.9037 21.0682C46.7513 21.2214 46.5709 21.298 46.3624 21.298H40.9088C40.7003 21.298 40.5199 21.2214 40.3675 21.0682Z" fill="black"/>
<path d="M56.7401 21.1125C56.6158 20.9875 56.5557 20.8383 56.5557 20.6689C56.5557 20.5923 56.5637 20.5237 56.5837 20.4673L62.9475 2.15402C63.0237 1.90398 63.1641 1.68621 63.3766 1.49263C63.5851 1.30309 63.8698 1.2063 64.2307 1.2063H70.4261C70.787 1.2063 71.0717 1.30309 71.2842 1.49263C71.4927 1.68621 71.6371 1.90398 71.7133 2.15402L78.0771 20.4673C78.0971 20.5237 78.1051 20.5923 78.1051 20.6689C78.1051 20.8423 78.041 20.9875 77.9207 21.1125C77.7964 21.2375 77.648 21.298 77.4796 21.298H72.1985C71.6291 21.298 71.2561 21.0601 71.0837 20.5802L70.398 18.6847H64.2628L63.5771 20.5802C63.4047 21.0601 63.0357 21.298 62.4623 21.298H57.1812C57.0088 21.298 56.8604 21.2375 56.7401 21.1125ZM65.7144 13.0871H68.9384L67.3103 7.74761L65.7144 13.0871Z" fill="black"/>
<path d="M80.4712 21.0682C80.3189 20.9149 80.2427 20.7334 80.2427 20.5237V1.98061C80.2427 1.7709 80.3189 1.58942 80.4712 1.43617C80.6236 1.28292 80.8041 1.2063 81.0126 1.2063H89.233C91.0415 1.2063 92.6495 1.5128 94.0569 2.12579C95.4644 2.73879 96.5872 3.63812 97.4253 4.82378C98.2634 6.00944 98.7085 7.43707 98.7686 9.10265C98.8047 10.1754 98.8248 10.9013 98.8248 11.2844C98.8248 11.6474 98.8047 12.3451 98.7686 13.3815C98.6563 16.023 97.7661 18.0032 96.098 19.3219C94.4339 20.6407 92.1923 21.3021 89.3773 21.3021H81.0126C80.8041 21.298 80.6236 21.2214 80.4712 21.0682ZM89.237 15.7004C89.9026 15.7004 90.44 15.5028 90.849 15.1116C91.258 14.7204 91.4826 14.1397 91.5186 13.3735C91.5547 12.8169 91.5748 12.0991 91.5748 11.2199C91.5748 10.3206 91.5547 9.61079 91.5186 9.09458C91.4785 8.32834 91.238 7.75567 90.7928 7.37255C90.3437 6.98943 89.7783 6.79988 89.0926 6.79988H87.3804V15.7004H89.237Z" fill="black"/>
<path d="M104.262 19.6204C102.598 18.3097 101.764 16.3416 101.764 13.7203V1.98061C101.764 1.7709 101.84 1.58942 101.992 1.43617C102.145 1.28292 102.325 1.2063 102.534 1.2063H108.127C108.336 1.2063 108.516 1.28292 108.669 1.43617C108.821 1.58942 108.897 1.7709 108.897 1.98061V13.6074C108.897 14.3333 109.074 14.8858 109.427 15.2568C109.78 15.6319 110.305 15.8174 111.011 15.8174C111.712 15.8174 112.242 15.6319 112.595 15.2568C112.947 14.8817 113.124 14.3333 113.124 13.6074V1.98061C113.124 1.7709 113.2 1.58942 113.352 1.43617C113.505 1.28292 113.685 1.2063 113.894 1.2063H119.488C119.696 1.2063 119.877 1.28292 120.029 1.43617C120.181 1.58942 120.258 1.7709 120.258 1.98061V13.7203C120.258 16.3416 119.432 18.3097 117.775 19.6204C116.119 20.931 113.874 21.5884 111.039 21.5884C108.188 21.5844 105.926 20.931 104.262 19.6204Z" fill="black"/>
<path d="M39.3809 46.5356C39.2566 46.5356 39.1524 46.4711 39.0682 46.3421C38.9839 46.213 38.9438 46.0598 38.9438 45.8823C38.9438 45.8017 38.9519 45.7331 38.9639 45.6726L43.7197 26.6577C43.7758 26.4399 43.8721 26.2302 44.0124 26.0326C44.1528 25.8349 44.3452 25.7382 44.5979 25.7382H48.4154C48.68 25.7382 48.8805 25.839 49.0209 26.0326C49.1612 26.2302 49.2494 26.4399 49.2935 26.6577L54.0614 45.6726C54.0734 45.7331 54.0814 45.8017 54.0814 45.8823C54.0814 46.0598 54.0373 46.213 53.9451 46.3421C53.8528 46.4711 53.7486 46.5356 53.6203 46.5356H50.4083C50.1717 46.5356 49.9993 46.455 49.887 46.2977C49.7747 46.1404 49.6985 45.9912 49.6584 45.8501L49.0128 43.3537H43.9884L43.3428 45.8501C43.3027 45.9872 43.2265 46.1364 43.1222 46.2977C43.018 46.459 42.8415 46.5356 42.5889 46.5356H39.3809ZM44.9508 38.3328H48.0585L46.4946 31.6463L44.9508 38.3328Z" fill="white"/>
<path d="M61.8406 46.83C60.5213 46.83 59.3665 46.5356 58.38 45.9549C57.3936 45.3701 56.6197 44.4829 56.0543 43.2972C55.4929 42.1075 55.1801 40.6033 55.128 38.7804C55.1119 37.9698 55.1079 37.0947 55.1079 36.1671C55.1079 35.2355 55.1159 34.3443 55.128 33.4933C55.1841 31.7108 55.5009 30.2227 56.0783 29.0209C56.6558 27.8231 57.4417 26.9278 58.4362 26.331C59.4306 25.7381 60.5655 25.4397 61.8446 25.4397C62.7629 25.4397 63.621 25.5929 64.419 25.8994C65.217 26.2059 65.9308 26.6738 66.5563 27.2948C67.1819 27.9199 67.6751 28.6862 68.036 29.5976C68.3969 30.509 68.5854 31.5777 68.5974 32.8077C68.5974 32.9852 68.5533 33.1384 68.4611 33.2675C68.3688 33.3965 68.2646 33.4611 68.1362 33.4611H64.6115C64.403 33.4611 64.2506 33.4006 64.1544 33.2836C64.0581 33.1626 63.9739 32.957 63.9057 32.6585C63.7253 31.8076 63.4606 31.2349 63.1118 30.9365C62.7629 30.6381 62.3419 30.4888 61.8406 30.4888C61.2271 30.4888 60.7419 30.7228 60.381 31.1865C60.0201 31.6503 59.8236 32.469 59.7955 33.6385C59.7554 35.2638 59.7554 36.9253 59.7955 38.6312C59.8236 39.8007 60.0161 40.6154 60.381 41.0832C60.7419 41.547 61.2271 41.7809 61.8406 41.7809C62.3419 41.7809 62.7669 41.6236 63.1238 41.305C63.4767 40.9864 63.7373 40.4258 63.9057 39.6112C63.9619 39.2926 64.0421 39.0829 64.1463 38.974C64.2506 38.8651 64.407 38.8086 64.6155 38.8086H68.1403C68.2646 38.8086 68.3728 38.8691 68.4651 38.9861C68.5533 39.103 68.6014 39.2523 68.6014 39.4337C68.5894 40.6597 68.4009 41.7365 68.04 42.656C67.6791 43.5795 67.1859 44.3498 66.5603 44.9749C65.9348 45.6 65.221 46.0638 64.423 46.3703C63.617 46.6768 62.7589 46.83 61.8406 46.83Z" fill="white"/>
<path d="M74.7086 46.5356C74.5562 46.5356 74.4279 46.4631 74.3236 46.3138C74.2194 46.1646 74.1673 45.9831 74.1673 45.7654V31.2632H70.5824C70.43 31.2632 70.3017 31.1906 70.1974 31.0414C70.0931 30.8922 70.041 30.7107 70.041 30.4929V26.5125C70.041 26.2947 70.0931 26.1132 70.1974 25.964C70.3017 25.8148 70.43 25.7422 70.5824 25.7422H82.3034C82.4558 25.7422 82.5841 25.8148 82.6884 25.964C82.7927 26.1132 82.8448 26.2947 82.8448 26.5125V30.4929C82.8448 30.7107 82.7927 30.8922 82.6884 31.0414C82.5841 31.1906 82.4558 31.2632 82.3034 31.2632H78.7186V45.7613C78.7186 45.9791 78.6664 46.1606 78.5622 46.3098C78.4579 46.459 78.3296 46.5316 78.1772 46.5316H74.7086V46.5356Z" fill="white"/>
<path d="M85.4912 46.5356C85.3508 46.5356 85.2265 46.4631 85.1142 46.3138C85.0019 46.1646 84.9458 45.9831 84.9458 45.7654V26.5125C84.9458 26.2947 85.0019 26.1132 85.1142 25.964C85.2265 25.8148 85.3508 25.7422 85.4912 25.7422H89.0359C89.1883 25.7422 89.3166 25.8148 89.4209 25.964C89.5252 26.1132 89.5773 26.2947 89.5773 26.5125V45.7654C89.5773 45.9831 89.5252 46.1646 89.4209 46.3138C89.3166 46.4631 89.1883 46.5356 89.0359 46.5356H85.4912Z" fill="white"/>
<path d="M96.7114 46.5356C96.4467 46.5356 96.2422 46.4389 96.0979 46.2372C95.9535 46.0396 95.8573 45.8299 95.8172 45.6121L91.711 26.5972C91.6949 26.5205 91.6909 26.4479 91.6909 26.3915C91.6909 26.214 91.735 26.0608 91.8273 25.9317C91.9195 25.8027 92.0237 25.7382 92.1521 25.7382H95.3841C95.6327 25.7382 95.8292 25.839 95.9655 26.0326C96.1059 26.2302 96.1941 26.4278 96.2382 26.6254L98.7003 39.0144L101.162 26.6254C101.203 26.4278 101.295 26.2302 101.435 26.0326C101.575 25.8349 101.768 25.7382 102.021 25.7382H105.253C105.377 25.7382 105.481 25.8027 105.565 25.9317C105.65 26.0608 105.69 26.214 105.69 26.3915C105.69 26.452 105.682 26.5205 105.67 26.5972L101.583 45.6121C101.543 45.8299 101.447 46.0396 101.303 46.2372C101.158 46.4348 100.95 46.5356 100.689 46.5356H96.7114Z" fill="white"/>
<path d="M105.842 46.5356C105.718 46.5356 105.613 46.4711 105.529 46.3421C105.445 46.213 105.405 46.0598 105.405 45.8823C105.405 45.8017 105.413 45.7331 105.425 45.6726L110.181 26.6577C110.237 26.4399 110.333 26.2302 110.473 26.0326C110.614 25.8349 110.806 25.7382 111.059 25.7382H114.876C115.141 25.7382 115.341 25.839 115.482 26.0326C115.622 26.2302 115.71 26.4399 115.754 26.6577L120.53 45.6726C120.542 45.7331 120.55 45.8017 120.55 45.8823C120.55 46.0598 120.506 46.213 120.414 46.3421C120.322 46.4711 120.218 46.5356 120.089 46.5356H116.877C116.641 46.5356 116.468 46.455 116.356 46.2977C116.244 46.1404 116.168 45.9912 116.127 45.8501L115.482 43.3537H110.457L109.812 45.8501C109.772 45.9872 109.695 46.1364 109.591 46.2977C109.487 46.455 109.31 46.5356 109.058 46.5356H105.842ZM111.412 38.3328H114.519L112.956 31.6463L111.412 38.3328Z" fill="white"/>
<path d="M33.5261 0.181384C32.1425 -0.349779 31.1641 0.370243 30.2267 1.24765C26.9069 4.3638 23.5706 7.46028 20.2426 10.5686C14.6263 15.7189 3.97087 25.4726 0.794298 28.4943C-0.491067 29.7219 -0.167679 31.3862 1.41242 32.2164C2.80012 32.9443 9.66496 36.0487 12.2766 37.1897C11.2 39.1727 10.1275 41.1557 9.04274 43.1348C8.42871 44.2522 8.20357 45.283 9.17373 46.2627C10.2094 47.3093 11.3597 47.1047 12.5754 46.4949C15.2526 45.161 17.9748 43.9059 20.6479 42.5682C21.4584 42.1629 22.1174 42.1354 22.9525 42.5603C25.2531 43.7289 27.5905 44.8266 29.9443 45.8929C32.605 47.1008 34.0746 46.2391 34.136 43.4495C34.4308 30.0249 34.7009 16.5963 34.9957 3.1677C35.0243 1.92045 34.9506 0.728285 33.5261 0.181384ZM30.0016 9.83675C29.8051 19.5669 29.5922 29.2931 29.4039 39.0232C29.3834 40.1721 28.8922 40.2468 27.9671 39.7825C26.5507 39.0743 25.0812 38.4605 23.6853 37.7169C22.6455 37.1661 21.7122 37.1897 20.6561 37.6697C19.5058 38.189 18.4251 38.9012 16.9637 39.1255C16.976 38.2953 17.3485 37.831 17.6187 37.3313C19.78 33.3496 21.9496 29.3757 24.1069 25.39C25.0607 23.6273 24.7864 22.1873 23.411 21.5499C22.0519 20.9203 20.8198 21.4672 19.8865 23.1906C17.9789 26.6963 16.0713 30.2019 14.1678 33.7076C13.0298 32.9797 11.1755 31.9213 8.26497 30.3396C6.68078 29.6668 7.0492 29.1278 8.03573 28.2386C10.0907 26.3815 19.2029 17.9655 23.7508 13.7437C25.3759 12.2565 26.9887 10.7535 28.618 9.27017C28.8963 9.01836 29.1583 8.58163 29.6413 8.78229C30.1244 8.98295 30.0097 9.45903 30.0016 9.83675Z" fill="white"/>
</svg>
