<svg width="37" height="44" viewBox="0 0 37 44" fill="none" xmlns="http://www.w3.org/2000/svg">
<path d="M36.2889 31.1343C34.6932 29.3502 31.7076 26.6664 31.7076 17.875C31.7076 11.1977 27.2082 5.85234 21.1412 4.54094V2.75C21.1412 1.23148 19.9585 0 18.5 0C17.0415 0 15.8588 1.23148 15.8588 2.75V4.54094C9.79181 5.85234 5.29236 11.1977 5.29236 17.875C5.29236 26.6664 2.30677 29.3502 0.711149 31.1343C0.215614 31.6886 -0.00407235 32.3512 5.71011e-05 33C0.00914189 34.4094 1.07206 35.75 2.65116 35.75H34.3488C35.9279 35.75 36.9917 34.4094 36.9999 33C37.0041 32.3512 36.7844 31.6877 36.2889 31.1343ZM5.57729 31.625C7.32983 29.2213 9.2459 25.2373 9.25498 17.9248C9.25498 17.9077 9.25003 17.8922 9.25003 17.875C9.25003 12.5589 13.391 8.25 18.5 8.25C23.609 8.25 27.75 12.5589 27.75 17.875C27.75 17.8922 27.745 17.9077 27.745 17.9248C27.7541 25.2381 29.6702 29.2222 31.4227 31.625H5.57729ZM18.5 44C21.417 44 23.7832 41.5379 23.7832 38.5H13.2168C13.2168 41.5379 15.583 44 18.5 44Z" fill="white"/>
</svg>
