<svg width="44" height="44" viewBox="0 0 44 44" fill="none" xmlns="http://www.w3.org/2000/svg">
<path d="M22 8.51613C17.2984 8.51613 13.4839 12.3306 13.4839 17.0323C13.4839 21.7339 17.2984 25.5484 22 25.5484C26.7016 25.5484 30.5161 21.7339 30.5161 17.0323C30.5161 12.3306 26.7016 8.51613 22 8.51613ZM22 21.2903C19.6492 21.2903 17.7419 19.3831 17.7419 17.0323C17.7419 14.6815 19.6492 12.7742 22 12.7742C24.3508 12.7742 26.2581 14.6815 26.2581 17.0323C26.2581 19.3831 24.3508 21.2903 22 21.2903ZM22 0C9.84677 0 0 9.84677 0 22C0 34.1532 9.84677 44 22 44C34.1532 44 44 34.1532 44 22C44 9.84677 34.1532 0 22 0ZM22 39.7419C17.5911 39.7419 13.5637 38.1185 10.4589 35.4484C11.7806 33.4081 14.0427 32.0242 16.6331 31.9444C18.4782 32.5121 20.2347 32.796 22 32.796C23.7653 32.796 25.5218 32.521 27.3669 31.9444C29.9573 32.0331 32.2194 33.4081 33.5411 35.4484C30.4363 38.1185 26.4089 39.7419 22 39.7419V39.7419ZM36.4331 32.2815C34.2685 29.496 30.9242 27.6774 27.1097 27.6774C26.2048 27.6774 24.8032 28.529 22 28.529C19.2056 28.529 17.7952 27.6774 16.8903 27.6774C13.0847 27.6774 9.74032 29.496 7.56694 32.2815C5.49113 29.3806 4.25806 25.8323 4.25806 22C4.25806 12.2153 12.2153 4.25806 22 4.25806C31.7847 4.25806 39.7419 12.2153 39.7419 22C39.7419 25.8323 38.5089 29.3806 36.4331 32.2815Z" fill="white"/>
</svg>
